<svg xmlns="http://www.w3.org/2000/svg" viewBox="0 0 47.04 48"><defs><style>.cls-1{fill:#1e0f00;}</style></defs><title>Asset 521</title><g id="Layer_2" data-name="Layer 2"><g id="_1" data-name="1"><path class="cls-1" d="M37.52,33h-28a1,1,0,0,1-1-.76l-5-20,1.94-.48L10.3,31H36.74l4.81-19.24,1.94.48-5,20A1,1,0,0,1,37.52,33Z"/><path class="cls-1" d="M46,15.85,23.52,2.17,1,15.85l-1-1.7,23-14a1,1,0,0,1,1,0l23,14Z"/><path class="cls-1" d="M23.52,29a11,11,0,1,1,11-11A11,11,0,0,1,23.52,29Zm0-20a9,9,0,1,0,9,9A9,9,0,0,0,23.52,9Z"/><path class="cls-1" d="M17.52,48a4,4,0,1,1,4-4A4,4,0,0,1,17.52,48Zm0-6a2,2,0,1,0,2,2A2,2,0,0,0,17.52,42Z"/><path class="cls-1" d="M29.52,44a4,4,0,1,1,4-4A4,4,0,0,1,29.52,44Zm0-6a2,2,0,1,0,2,2A2,2,0,0,0,29.52,38Z"/><path class="cls-1" d="M28.52,19h-5a1,1,0,0,1-1-1V11h2v6h4Z"/><rect class="cls-1" x="28.52" y="32" width="2" height="5"/><rect class="cls-1" x="16.52" y="32" width="2" height="9"/></g></g></svg>